<svg id="Layer_1" data-name="Layer 1" xmlns="http://www.w3.org/2000/svg" viewBox="0 0 2000 2000"><defs><style>.cls-1{fill:#003d00;}.cls-2{fill:#282828;}.cls-3{fill:#fff;stroke:#000;stroke-width:0.5px;}.cls-3,.cls-4{stroke-miterlimit:10;}.cls-4{fill:none;stroke:#fff;stroke-width:6px;}</style></defs><polygon class="cls-1" points="820.79 633.86 617.63 1210.58 413.37 633.86 199.29 633.86 199.29 1429.03 363.13 1429.03 363.13 1211.67 346.74 837.02 560.83 1429.03 673.33 1429.03 887.96 836.47 871.58 1211.67 871.58 1429.03 1800.71 633.86 820.79 633.86"/><polygon class="cls-2" points="871.58 1429.03 1800.71 1429.03 1800.71 633.86 871.58 1429.03"/><path class="cls-3" d="M1628.2,1151.22q-3.95,54.72-24.64,100.56a233.93,233.93,0,0,1-57.18,78.62q-36.5,32.79-88.48,51.26t-118.55,18.49q-69,0-124-23.91a253.11,253.11,0,0,1-93.16-68.76q-38.22-44.85-58.66-108.69T1043.1,1055.6v-47.32q0-79.37,21.2-143.44t59.89-108.94a259.82,259.82,0,0,1,93.9-69q55.2-24.15,123.23-24.15,67,0,118.55,19t87.49,52.75a239.75,239.75,0,0,1,56.2,80.34q20.2,46.59,25.63,101.3H1481.31q-2.47-32-11.09-56.69T1445.33,818q-16.27-16.75-41.9-25.39T1341.32,784q-74.92,0-111.65,54.46T1193,1007.29v48.31q0,55.71,8.13,97.6t25.64,70q17.49,28.1,45.35,42.15t67.28,14q35,0,60.38-7.88t42.39-23.91q17-16,26.37-40.17t11.84-56.2Z"/><line class="cls-4" x1="871.58" y1="1429.03" x2="1800.71" y2="633.86"/></svg>